<?xml version="1.0" encoding="UTF-8" standalone="no"?>
<svg width="512" height="512" xmlns="http://www.w3.org/2000/svg" xmlns:svg="http://www.w3.org/2000/svg">
 <title>Arrow only</title>
 <g class="layer">
  <title>Layer 1</title>
  <g id="svg_1" transform="matrix(5.2105 0 0 4.61512 -202.89 -218.773)">
   <path d="m-2.8797,6.90511c3.69691,0.4262 5.4442,2.07398 8.01489,4.65845c0.77794,0.77493 1.55587,1.54986 2.35738,2.34828c0.83235,0.84469 1.66469,1.68939 2.52226,2.55968c0.86558,0.86745 1.73116,1.7349 2.62297,2.62864c1.83337,1.8401 3.66314,3.6838 5.48958,5.53078c2.77713,2.80806 5.56458,5.60553 8.35425,8.40112c1.78252,1.7917 3.56444,3.584 5.3457,5.37696c1.23941,1.24578 1.23941,1.24578 2.50386,2.51674c4.27556,4.32773 8.41297,8.72354 12.37514,13.3408c1.66982,1.93503 3.41513,3.77319 5.22647,5.57605c0.56332,0.5659 1.12664,1.1318 1.70703,1.71484c1.45763,1.44931 1.45763,1.44931 3.48047,2.34766c-1.36984,3.16116 -1.98906,3.99271 -5,6c-0.41363,-0.41886 -0.82726,-0.83773 -1.25342,-1.26929c-1.87125,-1.892 -3.74636,-3.78014 -5.62158,-5.66821c-0.97646,-0.98903 -0.97646,-0.98903 -1.97266,-1.99805c-0.62519,-0.62841 -1.25039,-1.25683 -1.89453,-1.90429c-0.57605,-0.58129 -1.1521,-1.16258 -1.7456,-1.76148c-1.47873,-1.4982 -1.47873,-1.4982 -3.51221,-2.39868c-0.23719,0.65484 -0.47438,1.30969 -0.71875,1.98438c-1.66344,3.91515 -3.69621,7.56184 -5.78125,11.26562c-0.40348,0.73219 -0.80695,1.46437 -1.22266,2.21875c-0.39058,0.69609 -0.78117,1.39219 -1.18359,2.10938c-0.35385,0.63325 -0.7077,1.2665 -1.07227,1.91894c-1.02148,1.50293 -1.02148,1.50293 -3.02148,2.50293c0,-10.89 0,-21.78 0,-33c-3.63,0 -7.26,0 -11,0c0.12504,-0.88559 0.25008,-1.77117 0.37891,-2.68359c0.35384,-7.23489 -0.28608,-11.53607 -5.23047,-17.09766c-4.18718,-4.28678 -8.5973,-8.32219 -13.14844,-12.21875c1.875,-3.875 1.875,-3.875 3,-5z" fill="#E3E3E3" id="svg_2" transform="translate(62 63)"/>
   <path d="m-2.8797,6.90511c12.21,0 24.42,0 37,0c-1.38135,4.14405 -2.66575,7.57184 -4.60156,11.39844c-0.48985,0.97324 -0.97969,1.94648 -1.48438,2.94922c-0.50789,0.99902 -1.01578,1.99804 -1.53906,3.02734c-0.51562,1.02223 -1.03125,2.04445 -1.5625,3.09766c-1.26721,2.51094 -2.53937,5.01939 -3.8125,7.52734c4.29,0.33 8.58,0.66 13,1c-0.93412,3.73648 -2.22743,6.609 -4,10c-2.7968,-1.28181 -4.90076,-2.63291 -7.11621,-4.76221c-0.5803,-0.55463 -1.1606,-1.10926 -1.75848,-1.68069c-0.6137,-0.59892 -1.22739,-1.19784 -1.85968,-1.81491c-0.63803,-0.62188 -1.27606,-1.24377 -1.93342,-1.88449c-1.34434,-1.31673 -2.68564,-2.63656 -4.0241,-3.95926c-1.37038,-1.34729 -2.74965,-2.68559 -4.1377,-4.01465c-2.00906,-1.9237 -3.99025,-3.87257 -5.96728,-5.8291c-0.93269,-0.88017 -0.93269,-0.88017 -1.88422,-1.77811c-0.56769,-0.57354 -1.13538,-1.14708 -1.72028,-1.73801c-0.50311,-0.49138 -1.00623,-0.98276 -1.52459,-1.48904c-1.07404,-2.04953 -1.07404,-2.04953 -1.07404,-10.04953z" fill="#EEEEEE" id="svg_3" transform="translate(77 59)"/>
   <path d="m-2.8797,6.90511c4.62,0 9.24,0 14,0c-0.93412,3.73648 -2.22743,6.609 -4,10c-4.13639,-1.59092 -7.23213,-4.60475 -10,-8c0,-0.66 0,-1.32 0,-2z" fill="#D6D6D6" id="svg_4" transform="translate(100 88)"/>
  </g>
 </g>
</svg>