<?xml version="1.0" encoding="UTF-8" standalone="no"?>
<svg width="512" height="512" xmlns="http://www.w3.org/2000/svg" xmlns:svg="http://www.w3.org/2000/svg" xmlns:xlink="http://www.w3.org/1999/xlink">
  <title>Arrow only</title>
  <defs>
    <symbol id="svg_5" xmlns="http://www.w3.org/2000/svg">
      <path d="m0,0c12.54,0 25.08,0 38,0c-1.48507,3.71269 -3.03099,7.17867 -4.82031,10.73828c-0.53496,1.0667 -1.06992,2.1334 -1.6211,3.23242c-0.55558,1.1028 -1.11117,2.20559 -1.68359,3.3418c-0.56332,1.12213 -1.12664,2.24426 -1.70703,3.40039c-1.38752,2.76328 -2.77751,5.52531 -4.16797,8.28711c4.29,0.33 8.58,0.66 13,1c-0.87953,3.51811 -1.80033,5.6941 -3.55469,8.78906c-0.52755,0.93385 -1.0551,1.86769 -1.59863,2.82984c-0.56815,0.99201 -1.13631,1.98402 -1.72168,3.0061c-0.57847,1.01586 -1.15693,2.03172 -1.75293,3.07837c-3.79289,6.62719 -7.65747,13.20821 -11.62207,19.73413c-0.46519,0.76844 -0.93038,1.53688 -1.40967,2.32861c-1.08354,1.76336 -2.2073,3.50192 -3.34033,5.23389c-0.33,0 -0.66,0 -1,0c0,-10.89 0,-21.78 0,-33c-3.63,0 -7.26,0 -11,0c0,-13.86 0,-27.72 0,-42z" fill="#E7E7E7" id="svg_1" transform="translate(68,43)"/>
    </symbol>
  </defs>
  <g class="layer">
    <title>Layer 1</title>
    <use id="svg_6" transform="matrix(3.55161 0 0 4.40553 -206.907 -202.076)" x="38.9696" xlink:href="#svg_5" y="23.76455"/>
    <g id="svg_7"/>
  </g>
</svg>