<?xml version="1.0" encoding="UTF-8" standalone="no"?>
<svg width="512" height="512" xmlns="http://www.w3.org/2000/svg" xmlns:svg="http://www.w3.org/2000/svg" xmlns:xlink="http://www.w3.org/1999/xlink">
  <title>Arrow only</title>
  <defs>
    <symbol id="svg_2" xmlns="http://www.w3.org/2000/svg">
      <path d="m0,0c9.67876,5.64341 17.55385,14.54863 20.49219,25.45313c1.67956,12.1562 -0.03403,21.84844 -7,32c-4.45871,5.6731 -9.33268,9.31177 -16,12c-0.72446,0.35578 -1.44891,0.71156 -2.19532,1.07812c-8.61424,2.83142 -20.62276,2.16547 -28.70703,-1.82812c-0.69222,-0.4125 -1.38445,-0.82501 -2.09765,-1.25c-0.70254,-0.4125 -1.40508,-0.82501 -2.12891,-1.25c-5.72504,-3.82394 -9.3806,-8.88635 -12.87109,-14.75c-0.36352,-0.602 -0.72703,-1.20399 -1.10157,-1.82422c-3.7024,-7.69892 -3.17365,-19.88068 -0.89843,-28.05078c4.68171,-11.18411 12.69907,-18.71508 23.82422,-23.28516c8.96459,-2.37071 20.14717,-1.97738 28.68359,1.70703z" fill="#EFEFEF" id="svg_1" transform="translate(109.5078125,59.546875)"/>
      <path d="m0,0c2.64,0 5.28,0 8,0c0,7.59 0,15.18 0,23c-2.64,0 -5.28,0 -8,0c0,-7.59 0,-15.18 0,-23z" fill="#161616" id="svg_5" transform="translate(89,90)"/>
      <path d="m0,0c3.29715,0.32971 4.62268,0.62268 7,3c-0.32971,3.29715 -0.62268,4.62268 -3,7c-3.29715,-0.32971 -4.62268,-0.62268 -7,-3c0.32971,-3.29715 0.62268,-4.62268 3,-7z" fill="#161616" id="svg_6" transform="translate(91,73)"/>
    </symbol>
  </defs>
  <g class="layer">
    <title>Layer 1</title>
    <g id="svg_7"/>
    <use id="svg_3" transform="matrix(4.35801 0 0 4.41997 -159.107 -147.573)" x="2.49673" xlink:href="#svg_2" y="-1.8153"/>
    <g id="svg_4"/>
  </g>
</svg>