<?xml version="1.0" encoding="UTF-8" standalone="no"?>
<svg width="512" height="512" xmlns="http://www.w3.org/2000/svg" xmlns:svg="http://www.w3.org/2000/svg" xmlns:xlink="http://www.w3.org/1999/xlink">
  <title>Arrow only</title>
  <defs>
    <symbol id="svg_3" xmlns="http://www.w3.org/2000/svg">
      <path d="m0,0c7.2859,-0.06841 14.57163,-0.12318 21.85779,-0.15544c3.38509,-0.0155 6.76995,-0.03644 10.15491,-0.07088c35.68531,-0.33628 35.68531,-0.33628 52.6748,7.35132c1.33406,0.59095 1.33406,0.59095 2.69507,1.19385c24.24511,11.07756 42.39495,31.21073 52.61743,55.68115c4.61332,13.15494 6.15932,25.93141 6.09766,39.8125c-0.00213,1.81419 -0.00213,1.81419 -0.00429,3.66504c-0.00557,3.84085 -0.01812,7.68163 -0.03087,11.52246c-0.00502,2.61328 -0.00958,5.22656 -0.01367,7.83984c-0.01099,6.38675 -0.02824,12.77344 -0.04883,19.16016c-7.26,0 -14.52,0 -22,0c-0.00935,-1.64815 -0.01869,-3.29629 -0.02832,-4.99438c-0.03584,-5.50824 -0.08983,-11.01611 -0.15558,-16.52407c-0.03915,-3.3324 -0.06939,-6.66431 -0.0871,-9.99693c0.13059,-20.62707 0.13059,-20.62707 -4.729,-40.48462c-0.30229,-0.7964 -0.60457,-1.5928 -0.91602,-2.41333c-0.81883,-1.96443 -1.71594,-3.83025 -2.70898,-5.71167c-0.33991,-0.65686 -0.67982,-1.31372 -1.03003,-1.99048c-6.07182,-11.32941 -13.82434,-20.38285 -24.34497,-27.88452c-0.7657,-0.55172 -1.53141,-1.10344 -2.32031,-1.67187c-10.56944,-6.95075 -23.96052,-11.33694 -36.59326,-11.53345c-1.14073,-0.01995 -2.28146,-0.03989 -3.45676,-0.06044c-1.21584,-0.01671 -2.43168,-0.03343 -3.68436,-0.05065c-1.25668,-0.02078 -2.51337,-0.04156 -3.80813,-0.06297c-3.32404,-0.05417 -6.64808,-0.10446 -9.9722,-0.15285c-3.3988,-0.05043 -6.79751,-0.106 -10.19623,-0.16113c-6.65618,-0.10692 -13.31243,-0.20826 -19.96875,-0.30664c0,-7.26 0,-14.52 0,-22z" fill="#FCFCFC" id="svg_1" transform="translate(56,52)"/>
    </symbol>
  </defs>
  <g class="layer">
    <title>Layer 1</title>
    <g id="svg_7"/>
    <g id="svg_4"/>
    <g id="svg_10"/>
    <g id="svg_9"/>
    <g id="svg_6"/>
    <use id="svg_5" transform="matrix(2.58092 0 0 2.63782 -100.243 -89.7759)" x="10.16632" xlink:href="#svg_3" y="7.31791"/>
    <g id="svg_8"/>
  </g>
</svg>