<?xml version="1.0" encoding="UTF-8" standalone="no"?>
<svg width="512" height="512" xmlns="http://www.w3.org/2000/svg" xmlns:svg="http://www.w3.org/2000/svg" xmlns:xlink="http://www.w3.org/1999/xlink">
  <title>Arrow only</title>
  <defs>
    <symbol id="svg_5" xmlns="http://www.w3.org/2000/svg">
      <path d="m0,0c1.22089,0.00008 2.44178,0.00015 3.69966,0.00023c1.3085,0.00516 2.61699,0.01032 3.96513,0.01564c1.36049,0.00187 2.72098,0.00329 4.08147,0.00429c3.56906,0.0038 7.13807,0.01362 10.70711,0.0247c3.64664,0.01026 7.29329,0.0148 10.93994,0.01984c7.1465,0.0107 14.29297,0.02828 21.43945,0.04883c0,7.26 0,14.52 0,22c-1.69826,0.0041 -3.39651,0.00821 -5.14624,0.01245c-5.68387,0.01959 -11.36727,0.0622 -17.05088,0.11964c-3.43772,0.03393 -6.875,0.05932 -10.31289,0.06346c-26.92981,0.04392 -48.18876,3.54028 -68.48999,22.80445c-12.61761,13.09026 -21.9195,31.38522 -22.20532,49.80004c-0.01994,1.14081 -0.03989,2.28161 -0.06044,3.45699c-0.02507,1.8315 -0.02507,1.8315 -0.05064,3.7c-0.02078,1.2581 -0.04156,2.5162 -0.06298,3.81242c-0.05422,3.33227 -0.1045,6.66455 -0.15284,9.9969c-0.05039,3.40541 -0.10598,6.81073 -0.16114,10.21607c-0.107,6.67246 -0.20832,13.34498 -0.30664,20.01758c-7.26,0 -14.52,0 -22,0c-0.07486,-7.53986 -0.12893,-15.07949 -0.16479,-22.61963c-0.01497,-2.55831 -0.03535,-5.11659 -0.06152,-7.67481c-0.13842,-13.89021 -0.26826,-27.18851 3.22631,-40.70556c0.27965,-1.13374 0.5593,-2.26747 0.84742,-3.43555c6.42018,-24.78574 24.33743,-45.89176 46.09301,-58.70752c12.42077,-6.94758 26.82008,-13.00029 41.22681,-12.97046z" fill="#FCFCFC" id="svg_1" transform="translate(146.167236328125,65.886474609375)"/>
    </symbol>
  </defs>
  <g class="layer">
    <title>Layer 1</title>
    <g id="svg_7"/>
    <g id="svg_4"/>
    <g id="svg_10"/>
    <use id="svg_6" transform="matrix(2.43005 0 0 2.45933 -502.599 -805.025)" x="186.5455" xlink:href="#svg_5" y="293.08821"/>
    <g id="svg_9"/>
  </g>
</svg>