<?xml version="1.0" encoding="UTF-8" standalone="no"?>
<svg width="512" height="512" xmlns="http://www.w3.org/2000/svg" xmlns:svg="http://www.w3.org/2000/svg" xmlns:xlink="http://www.w3.org/1999/xlink">
 <title>Arrow only</title>
 <defs>
  <symbol id="svg_1" xmlns="http://www.w3.org/2000/svg">
   <path d="m0,0c7.26,0 14.52,0 22,0c0.07495,7.37913 0.12897,14.75803 0.16479,22.13745c0.01496,2.50297 0.03533,5.00591 0.06153,7.50879c0.29903,29.33471 -3.26727,57.35374 -23.22632,80.35376c-0.64195,0.78504 -1.28391,1.57008 -1.94531,2.37891c-15.86463,18.70386 -38.77407,30.60034 -63.05469,33.62109c-4.62342,0.24423 -9.23058,0.23491 -13.85938,0.19531c-1.27039,-0.00283 -2.54078,-0.00566 -3.84967,-0.00857c-3.33396,-0.00922 -6.66764,-0.0271 -10.00152,-0.04941c-3.41937,-0.02067 -6.83877,-0.02964 -10.25818,-0.03967c-6.67717,-0.02192 -13.35417,-0.05638 -20.03125,-0.09766c0,-7.26 0,-14.52 0,-22c1.66386,-0.01458 3.32771,-0.02917 5.04199,-0.04419c5.54414,-0.05199 11.08801,-0.11736 16.6319,-0.19152c3.35595,-0.04442 6.71166,-0.08219 10.06781,-0.11073c3.87285,-0.03382 7.74509,-0.08615 11.61767,-0.14184c1.18488,-0.00639 2.36974,-0.01278 3.59052,-0.01936c20.34184,-0.35312 38.91026,-8.30408 53.82355,-22.10564c15.71074,-16.84082 22.21154,-37.17504 22.54297,-59.88281c0.03117,-1.78303 0.03117,-1.78303 0.06297,-3.60207c0.06514,-3.77972 0.12421,-7.55951 0.18312,-11.33934c0.04322,-2.56967 0.08683,-5.13933 0.13086,-7.70898c0.1068,-6.28444 0.20817,-12.56895 0.30664,-18.85352z" fill="#FCFCFC" id="svg_5" transform="translate(194,60)"/>
  </symbol>
 </defs>
 <g class="layer">
  <title>Layer 1</title>
  <g id="svg_7"/>
  <g id="svg_4"/>
  <g id="svg_10"/>
  <g id="svg_9"/>
  <g id="svg_6"/>
  <g id="svg_8"/>
  <use id="svg_2" transform="matrix(2.5696 0 0 2.75793 -124.182 -121.351)" x="7.33076" xlink:href="#svg_1" y="5.42822"/>
  <g id="svg_3"/>
 </g>
</svg>