<?xml version="1.0" encoding="UTF-8" standalone="no"?>
<svg width="512" height="512" xmlns="http://www.w3.org/2000/svg" xmlns:svg="http://www.w3.org/2000/svg" xmlns:xlink="http://www.w3.org/1999/xlink">
  <title>Arrow only</title>
  <defs>
    <symbol id="svg_2" xmlns="http://www.w3.org/2000/svg">
      <path d="m0,0c7.26,0 14.52,0 22,0c0.01982,1.57298 0.03964,3.14596 0.06006,4.7666c0.07655,5.88199 0.16518,11.76375 0.25732,17.64551c0.03809,2.53706 0.07298,5.07417 0.1045,7.61133c0.04609,3.66424 0.10401,7.32815 0.16406,10.99219c0.01155,1.11924 0.0231,2.23849 0.035,3.39166c0.41082,22.33426 8.15305,41.15751 23.37906,57.59271c9.41415,8.81127 20.64995,15.31941 33,19c1.09474,0.33846 2.18947,0.67692 3.31738,1.02563c6.04261,1.49105 12.17968,1.33119 18.37012,1.38843c1.29825,0.01937 2.59649,0.03873 3.93408,0.05869c3.4259,0.051 6.85183,0.09079 10.2779,0.12814c3.50626,0.04024 7.01236,0.09124 10.51849,0.1413c6.86057,0.09637 13.72123,0.1799 20.58203,0.25781c0,7.26 0,14.52 0,22c-7.62516,0.1142 -15.24999,0.20539 -22.87581,0.25906c-3.54327,0.0258 -7.08592,0.06062 -10.62883,0.11814c-23.14166,0.36547 -42.1447,-1.7959 -62.49536,-13.3772c-0.98355,-0.54398 -1.96711,-1.08797 -2.98047,-1.64844c-21.95792,-12.99097 -37.59432,-35.66796 -44.01953,-60.16406c-0.74681,-3.38935 -1.42274,-6.76545 -2,-10.1875c-0.17418,-0.96365 -0.34837,-1.92731 -0.52783,-2.92017c-0.77295,-5.49649 -0.59479,-11.03766 -0.56983,-16.57592c0.00142,-1.18869 0.00283,-2.37737 0.00429,-3.60207c0.00558,-3.77981 0.01813,-7.55955 0.03087,-11.33934c0.00502,-2.56966 0.00958,-5.13932 0.01367,-7.70898c0.011,-6.28453 0.02825,-12.56902 0.04883,-18.85352z" fill="#FBFBFB" id="svg_1" transform="translate(108,87)"/>
    </symbol>
  </defs>
  <g class="layer">
    <title>Layer 1</title>
    <g id="svg_7"/>
    <g id="svg_4"/>
    <g id="svg_10"/>
    <g id="svg_9"/>
    <use id="svg_3" transform="matrix(2.56031 0 0 2.50325 -217.343 -169.664)" x="5.85867" xlink:href="#svg_2" y="9.18805"/>
    <g id="svg_6"/>
  </g>
</svg>