<?xml version="1.0" encoding="UTF-8" standalone="no"?>
<svg width="512" height="512" xmlns="http://www.w3.org/2000/svg" xmlns:svg="http://www.w3.org/2000/svg">
  <title>Arrow only</title>
  <g class="layer">
    <title>Layer 1</title>
    <path d="m223.61193,103c6.67882,3.44792 13.35761,6.89586 20.2388,10.44828c-36.48602,43.95041 -76.72981,84.44762 -116.37315,125.37933c147.76859,2.58595 147.76859,2.58595 298.52239,5.22414c0,6.89586 0,13.79173 0,20.89655c-98.51239,1.72396 -197.02478,3.44792 -298.52239,5.22414c38.40313,39.65121 76.80628,79.30243 116.37315,120.1552c-3.3394,5.1719 -6.67882,10.34379 -10.1194,15.67241c-20.86337,-8.26176 -33.33286,-23.96155 -47.75094,-40.81358c-31.80402,-36.42823 -65.15525,-71.04484 -98.98041,-105.46231c6.77995,-15.70805 14.15931,-26.10832 26.2472,-37.875c12.58357,-12.59237 24.38225,-25.39846 35.73415,-39.18104c23.37578,-28.05681 49.09529,-53.732 74.63059,-79.66811l0.00001,-0.00001z" fill="#E0E0E0" id="svg_1"/>
  </g>
</svg>
