<svg width="512" height="512" xmlns="http://www.w3.org/2000/svg" xmlns:svg="http://www.w3.org/2000/svg" xmlns:xlink="http://www.w3.org/1999/xlink">
  <title>Arrow only</title>
  <defs>
    <symbol id="svg_8" xmlns="http://www.w3.org/2000/svg">
      <path d="m0,0c1.60139,-0.01651 3.2027,-0.04374 4.80371,-0.08203c2.31232,-0.05503 4.62291,-0.07669 6.93579,-0.09131c0.70961,-0.02267 1.41921,-0.04534 2.15032,-0.06869c3.88475,0.01635 6.30231,0.5932 9.27473,2.99984c3.52466,3.56461 3.52466,3.56461 3.66089,7.19385c-0.0116,0.99773 -0.0232,1.99547 -0.03516,3.02344c-0.00902,1.00289 -0.01804,2.00578 -0.02734,3.03906c-0.0116,0.77086 -0.0232,1.54172 -0.03516,2.33594c0.72446,-0.05801 1.44891,-0.11602 2.19532,-0.17578c8.8818,-0.41449 8.8818,-0.41449 12.42968,2.55078c3.06705,3.38989 3.50022,4.80606 3.5044,9.24243c0.00315,0.95762 0.0063,1.91523 0.00955,2.90187c-0.00202,1.03648 -0.00405,2.07296 -0.00613,3.14085c0.00095,1.06021 0.00191,2.12042 0.00289,3.21276c0.00069,2.24361 -0.00116,4.48723 -0.00534,6.73085c-0.00535,3.44788 -0.00005,6.89563 0.00635,10.3435c-0.00066,2.17513 -0.00194,4.35026 -0.0039,6.52539c0.00202,1.03851 0.00404,2.07702 0.00613,3.14699c-0.00473,1.4317 -0.00473,1.4317 -0.00955,2.89232c-0.0008,0.84446 -0.00159,1.68892 -0.00241,2.55898c-0.12699,1.92906 -0.12699,1.92906 -1.12699,2.92906c-1.80509,0.09899 -3.61407,0.12799 -5.42187,0.12939c-1.1579,0.00315 -2.3158,0.00631 -3.50879,0.00955c-1.89057,-0.00303 -1.89057,-0.00303 -3.81934,-0.00613c-1.28358,0.00096 -2.56716,0.00191 -3.88965,0.0029c-2.72039,0.00148 -5.44074,-0.00068 -8.16113,-0.00534c-3.49406,-0.0057 -6.98805,-0.00242 -10.48211,0.00357c-3.32238,0.00448 -6.64473,0.00135 -9.96711,-0.00113c-1.26038,0.00202 -2.52076,0.00405 -3.81933,0.00613c-1.1579,-0.00315 -2.3158,-0.0063 -3.50879,-0.00955c-1.02513,-0.00079 -2.05026,-0.00159 -3.10645,-0.00241c-2.31543,-0.12698 -2.31543,-0.12698 -3.31543,-1.12698c-0.09964,-2.23387 -0.12799,-4.47094 -0.12939,-6.70703c-0.00175,-0.7008 -0.00351,-1.4016 -0.00531,-2.12363c-0.00442,-2.32731 -0.00148,-4.65454 0.00189,-6.98184c-0.00067,-1.61044 -0.00164,-3.22087 -0.0029,-4.8313c-0.00148,-3.37949 0.00068,-6.75895 0.00534,-10.13843c0.0057,-4.34154 0.00242,-8.68301 -0.00357,-13.02455c-0.00361,-3.32673 -0.00247,-6.65345 0.00013,-9.98018c0.00067,-1.60126 -0.00016,-3.20252 -0.00248,-4.80377c-0.00253,-2.23412 0.00131,-4.46813 0.0069,-6.70224c0.00079,-1.27384 0.00159,-2.54767 0.00241,-3.86011c0.28761,-6.44812 10.26786,-4.15825 15.3992,-4.19702z" fill="#EEEEEE" id="svg_1" transform="translate(77.272216796875,41.64990234375)"/>
      <path d="m0,0c4.2843,1.47151 5.73142,5.01156 7.88281,8.82031c0.4544,0.73541 0.90879,1.47082 1.37696,2.22852c0.64292,1.10698 0.64292,1.10698 1.29882,2.23633c0.58069,0.99761 0.58069,0.99761 1.1731,2.01538c0.83862,2.58227 0.83862,2.58227 0.83862,11.58227c-14.52,0 -29.04,0 -44,0c0,-9 0,-9 1.53125,-11.6289c0.97453,-0.95713 0.97453,-0.95713 1.96875,-1.9336c0.64969,-0.66129 1.29938,-1.32258 1.96875,-2.0039c0.50531,-0.47309 1.01063,-0.94618 1.53125,-1.4336c3.65108,0.49704 5.54126,0.98849 7.8125,3.9375c2.1875,3.0625 2.1875,3.0625 2.1875,5.0625c0.66,0 1.32,0 2,0c0.25137,-0.68449 0.50274,-1.36898 0.76172,-2.07422c1.44037,-3.40325 3.17209,-6.56466 5.05078,-9.73828c0.33065,-0.59748 0.66129,-1.19496 1.00196,-1.81054c1.58798,-2.66696 2.65529,-4.18429 5.61523,-5.25977z" fill="#030303" id="svg_2" transform="translate(101.4296875,82.1171875)"/>
      <path d="m0,0c1.9375,1.125 1.9375,1.125 3,3c0.49573,3.89505 0.58017,6.09494 -1.5625,9.4375c-3.40469,2.1825 -5.4718,2.19984 -9.4375,1.5625c-2.5,-2.0625 -2.5,-2.0625 -4,-5c0,-3.80285 0.20318,-6.0193 2.625,-9c3.45883,-1.45635 5.78798,-0.91306 9.375,0z" fill="#0A0A0A" id="svg_3" transform="translate(85,61)"/>
    </symbol>
  </defs>
  <g class="layer">
    <title>Layer 1</title>
    <g id="svg_7"/>
    <g id="svg_4"/>
    <use id="svg_9" transform="matrix(5.66189 0 0 5.3552 -291.631 -174.064)" x="5.63894" xlink:href="#svg_8" y="-1.31896"/>
    <g id="svg_10"/>
  </g>
</svg>